<svg id="aeroplane" xmlns="http://www.w3.org/2000/svg" viewBox="0 0 170 151.787">
  <defs>
    <style>
      .cls-1 {
        fill: #5e7ae9;
      }
    </style>
  </defs>
  <path id="Path_70" data-name="Path 70" class="cls-1" d="M104.284,149.255a3.037,3.037,0,0,1-1.761-.565l-21.25-15.179A3.037,3.037,0,0,1,84.8,128.57l21.25,15.179a3.037,3.037,0,0,1-1.77,5.507Zm0,0" transform="translate(-49.645 -79.432)"/>
  <path id="Path_71" data-name="Path 71" class="cls-1" d="M86.071,149.252a3.033,3.033,0,0,1-2.972-2.44l-3.036-15.179a3.036,3.036,0,1,1,5.953-1.193l3.036,15.179a3.038,3.038,0,0,1-2.381,3.572A2.9,2.9,0,0,1,86.071,149.252Zm0,0" transform="translate(-49.645 -79.429)"/>
  <path id="Path_72" data-name="Path 72" class="cls-1" d="M83.042,237.257a3.037,3.037,0,0,1-1.767-5.507l21.25-15.179a3.037,3.037,0,0,1,3.531,4.942l-21.25,15.179A3.052,3.052,0,0,1,83.042,237.257Zm0,0" transform="translate(-49.647 -134.041)"/>
  <path id="Path_73" data-name="Path 73" class="cls-1" d="M411.036,192.29a3.036,3.036,0,1,1,0-6.071,6.071,6.071,0,0,0,0-12.143,3.036,3.036,0,1,1,0-6.071,12.143,12.143,0,0,1,0,24.286Zm0,0" transform="translate(-253.179 -104.252)"/>
  <path id="Path_74" data-name="Path 74" class="cls-1" d="M212.464,174.075H91.036a3.036,3.036,0,0,1,0-6.071H212.464a3.036,3.036,0,1,1,0,6.071Zm0,0" transform="translate(-54.607 -104.252)"/>
  <path id="Path_75" data-name="Path 75" class="cls-1" d="M212.464,222.075H91.036a3.036,3.036,0,1,1,0-6.071H212.464a3.036,3.036,0,1,1,0,6.071Zm0,0" transform="translate(-54.607 -134.038)"/>
  <path id="Path_76" data-name="Path 76" class="cls-1" d="M83.04,237.251a2.837,2.837,0,0,1-.6-.061,3.034,3.034,0,0,1-2.381-3.572L83.1,218.44a3.036,3.036,0,1,1,5.953,1.193l-3.036,15.179A3.035,3.035,0,0,1,83.04,237.251Zm0,0" transform="translate(-49.644 -134.036)"/>
  <path id="Path_77" data-name="Path 77" class="cls-1" d="M104.286,198.075H83.036a3.036,3.036,0,0,1,0-6.071h21.25a3.036,3.036,0,0,1,0,6.071Zm0,0" transform="translate(-49.643 -119.145)"/>
  <path id="Path_78" data-name="Path 78" class="cls-1" d="M91.036,192.29A3.034,3.034,0,0,1,88,189.254V171.04a3.036,3.036,0,1,1,6.071,0v18.214A3.034,3.034,0,0,1,91.036,192.29Zm0,0" transform="translate(-54.607 -104.252)"/>
  <path id="Path_79" data-name="Path 79" class="cls-1" d="M227.029,285.822a3.035,3.035,0,0,1-2.687-4.444l33.393-63.75a3.037,3.037,0,0,1,5.381,2.818L229.722,284.2A3.041,3.041,0,0,1,227.029,285.822Zm0,0" transform="translate(-138.996 -134.034)"/>
  <path id="Path_80" data-name="Path 80" class="cls-1" d="M212.143,390.075h-9.107a3.036,3.036,0,1,1,0-6.071h9.107a3.036,3.036,0,0,1,0,6.071Zm0,0" transform="translate(-124.107 -238.288)"/>
  <path id="Path_81" data-name="Path 81" class="cls-1" d="M203.032,285.828a3.075,3.075,0,0,1-.434-.03,3.04,3.04,0,0,1-2.578-3.437l9.107-63.75a3.038,3.038,0,0,1,6.015.86l-9.107,63.75A3.034,3.034,0,0,1,203.032,285.828Zm0,0" transform="translate(-124.101 -134.041)"/>
  <path id="Path_82" data-name="Path 82" class="cls-1" d="M266.05,326.075h-5.495a3.036,3.036,0,0,1,0-6.071h5.495a3.036,3.036,0,0,1,0,6.071Zm0,0" transform="translate(-159.8 -198.574)"/>
  <path id="Path_83" data-name="Path 83" class="cls-1" d="M290.76,278.075H285.7a3.036,3.036,0,1,1,0-6.071h5.061a3.036,3.036,0,1,1,0,6.071Zm0,0" transform="translate(-175.403 -168.788)"/>
  <path id="Path_84" data-name="Path 84" class="cls-1" d="M260.428,69.823a3.041,3.041,0,0,1-2.693-1.626L224.342,4.447a3.037,3.037,0,0,1,5.381-2.818l33.393,63.75a3.035,3.035,0,0,1-2.687,4.444Zm0,0" transform="translate(-138.996 0)"/>
  <path id="Path_85" data-name="Path 85" class="cls-1" d="M212.143,6.075h-9.107a3.036,3.036,0,1,1,0-6.071h9.107a3.036,3.036,0,0,1,0,6.071Zm0,0" transform="translate(-124.107 -0.002)"/>
  <path id="Path_86" data-name="Path 86" class="cls-1" d="M212.138,69.827a3.037,3.037,0,0,1-3-2.6l-9.107-63.75a3.038,3.038,0,0,1,6.015-.86l9.107,63.75a3.037,3.037,0,0,1-2.578,3.434A3.085,3.085,0,0,1,212.138,69.827Zm0,0" transform="translate(-124.106 -0.004)"/>
  <path id="Path_87" data-name="Path 87" class="cls-1" d="M266.05,70.075h-5.495a3.036,3.036,0,0,1,0-6.071h5.495a3.036,3.036,0,0,1,0,6.071Zm0,0" transform="translate(-159.8 -39.717)"/>
  <path id="Path_88" data-name="Path 88" class="cls-1" d="M290.76,118.075H285.7a3.036,3.036,0,0,1,0-6.071h5.061a3.036,3.036,0,0,1,0,6.071Zm0,0" transform="translate(-175.403 -69.502)"/>
  <path id="Path_89" data-name="Path 89" class="cls-1" d="M63.75,6.075H3.036A3.036,3.036,0,0,1,3.036,0H63.75a3.036,3.036,0,1,1,0,6.071Zm0,0" transform="translate(0 -0.002)"/>
  <path id="Path_90" data-name="Path 90" class="cls-1" d="M116.429,70.075H83.036a3.036,3.036,0,0,1,0-6.071h33.393a3.036,3.036,0,0,1,0,6.071Zm0,0" transform="translate(-49.643 -39.717)"/>
  <path id="Path_91" data-name="Path 91" class="cls-1" d="M63.75,390.075H3.036a3.036,3.036,0,0,1,0-6.071H63.75a3.036,3.036,0,0,1,0,6.071Zm0,0" transform="translate(0 -238.288)"/>
  <path id="Path_92" data-name="Path 92" class="cls-1" d="M116.429,326.075H83.036a3.036,3.036,0,0,1,0-6.071h33.393a3.036,3.036,0,0,1,0,6.071Zm0,0" transform="translate(-49.643 -198.574)"/>
  <path id="Path_93" data-name="Path 93" class="cls-1" d="M21.25,134.075H3.036a3.036,3.036,0,1,1,0-6.071H21.25a3.036,3.036,0,1,1,0,6.071Zm0,0" transform="translate(0 -79.431)"/>
  <path id="Path_94" data-name="Path 94" class="cls-1" d="M28.143,198.075H19.036a3.036,3.036,0,0,1,0-6.071h9.107a3.036,3.036,0,0,1,0,6.071Zm0,0" transform="translate(-9.929 -119.145)"/>
  <path id="Path_95" data-name="Path 95" class="cls-1" d="M21.25,262.075H3.036a3.036,3.036,0,0,1,0-6.071H21.25a3.036,3.036,0,0,1,0,6.071Zm0,0" transform="translate(0 -158.86)"/>
</svg>
